<svg width="234" height="236" viewBox="0 0 234 236" fill="none" xmlns="http://www.w3.org/2000/svg">
<path d="M186.73 25.5755C183.099 22.7851 179.262 20.1601 175.258 17.7314C181.903 21.6871 188.147 26.2965 193.894 31.4843C191.562 29.4215 189.17 27.4505 186.73 25.5755ZM215.297 180.101C210.68 187.56 205.234 194.473 199.066 200.696C202.739 196.916 206.144 192.946 209.239 188.841L208.439 188.24L209.239 188.841C211.36 186.03 213.384 183.113 215.297 180.101ZM26.6619 46.8988L27.4622 47.5L26.6619 46.8988C17.8204 58.6223 10.1637 72.2637 5.271 86.985C12.7088 59.1849 30.2396 35.1307 54.2015 19.6706C43.6635 27.3066 34.3814 36.6632 26.6619 46.8988ZM17.7966 177.277C26.4832 190.119 37.5179 201.209 49.1714 210.164C59.3625 217.995 70.8165 224.575 83.0133 229.179C55.8237 220.549 32.4861 202.022 17.7966 177.277Z" fill="#121212" stroke="url(#paint0_linear_365_3832)" stroke-width="2"/>
<defs>
<linearGradient id="paint0_linear_365_3832" x1="14.7672" y1="3.39661" x2="180.8" y2="137.096" gradientUnits="userSpaceOnUse">
<stop stop-color="white"/>
<stop offset="1" stop-color="#3393E0"/>
</linearGradient>
</defs>
</svg>
